inDegrees=no
num_controls=7
num_derivatives=13
num_iterations=34
num_multipliers=7
num_parameters=0
num_slacks=7
num_states=26
objective=0.426612
objective_accelerations=0.058774
objective_balance=0.001138
objective_effort=0.015556
objective_height=0.345178
objective_ligament=0.005966
solver_duration=498.475753
status=Solve_Succeeded
success=true
DataType=double
version=3
OpenSimVersion=4.5
endheader
time	/jointset/ground_pelvis/pelvis_tilt/value	/jointset/ground_pelvis/pelvis_tx/value	/jointset/ground_pelvis/pelvis_ty/value	/jointset/hip_l/hip_flexion_l/value	/jointset/hip_l/hip_adduction_l/value	/jointset/hip_l/hip_rotation_l/value	/jointset/back/lumbar_extension/value	/jointset/patellofemoral_l/patellar_flexion_l/value	/jointset/knee_l/knee_flexion_l/value	/jointset/knee_l/knee_adduction_l/value	/jointset/knee_l/knee_rotation_l/value	/jointset/ankle_l/ankle_angle_l/value	/jointset/subtalar_l/subtalar_angle_l/value	/jointset/ground_pelvis/pelvis_tilt/speed	/jointset/ground_pelvis/pelvis_tx/speed	/jointset/ground_pelvis/pelvis_ty/speed	/jointset/hip_l/hip_flexion_l/speed	/jointset/hip_l/hip_adduction_l/speed	/jointset/hip_l/hip_rotation_l/speed	/jointset/back/lumbar_extension/speed	/jointset/patellofemoral_l/patellar_flexion_l/speed	/jointset/knee_l/knee_flexion_l/speed	/jointset/knee_l/knee_adduction_l/speed	/jointset/knee_l/knee_rotation_l/speed	/jointset/ankle_l/ankle_angle_l/speed	/jointset/subtalar_l/subtalar_angle_l/speed	/forceset/tau_hip_flexion_l	/forceset/tau_hip_adduction_l	/forceset/tau_hip_rotation_l	/forceset/tau_knee_flexion_l	/forceset/tau_ankle_angle_l	/forceset/tau_subtalar_angle_l	/forceset/tau_lumbar_extension	lambda_cid13_p0	lambda_cid13_p1	lambda_cid13_p2	lambda_cid13_p3	lambda_cid13_p4	lambda_cid13_p5	lambda_cid14_p0	/jointset/ground_pelvis/pelvis_tilt/accel	/jointset/ground_pelvis/pelvis_tx/accel	/jointset/ground_pelvis/pelvis_ty/accel	/jointset/hip_l/hip_flexion_l/accel	/jointset/hip_l/hip_adduction_l/accel	/jointset/hip_l/hip_rotation_l/accel	/jointset/back/lumbar_extension/accel	/jointset/patellofemoral_l/patellar_flexion_l/accel	/jointset/knee_l/knee_flexion_l/accel	/jointset/knee_l/knee_adduction_l/accel	/jointset/knee_l/knee_rotation_l/accel	/jointset/ankle_l/ankle_angle_l/accel	/jointset/subtalar_l/subtalar_angle_l/accel	gamma_cid13_p0	gamma_cid13_p1	gamma_cid13_p2	gamma_cid13_p3	gamma_cid13_p4	gamma_cid13_p5	gamma_cid14_p0
1.5	-0.3533603222497843	0.05764365577925654	0.7902885996475245	1.010902476090527	-0.3597044854449238	-0.04558651928389072	-0.3266218863930109	0.8212095310840578	0.8212095310838343	-0.04022907593714646	-0.1688329826022694	0.2823886197621013	0.1559310158820219	0.5007939504798254	0.2684407955875531	0.4973538011245867	-2.329327171243486	-0.004105609877412626	-0.5821363588702237	0.6027826300294821	-2.214249660337944	-2.21424966033792	-0.3190153385101619	0.05423522054785183	-0.5597346439437028	-0.2278791316799908	-0.1377394878157887	0.08371196723792487	0.001125157937887029	-0.1188148698463572	-0.04386160514040659	-0.0184044597075181	0.1288814119290753	-39.96388411231599	15.72782912173877	-3.630728217998525	0.8763715108495964	-428.5713237700141	-20.01279843155086	-10.03324721096516	0.6408243717364787	0.5013392710765667	-0.7869937741936004	-1.213079124721633	0.314679275692892	-0.6144867471522215	1.572328397687784	-1.124911598414494	-1.124911598414463	0.03338002219237089	0.2817990582029255	-0.6084973903612478	0.4224331185744149	5.382206666888114e-07	-1.102707722121916e-07	-7.254872503470547e-06	-3.522833649427927e-07	1.544209746666402e-06	2.112022088684236e-06	8.13816188864165e-07
1.51	-0.3483203647902554	0.06035274955134214	0.7952218503428624	0.9875498865608558	-0.3597327583676881	-0.05143074707481186	-0.3205173708280808	0.7990125435299601	0.7990125435298797	-0.0434282035128889	-0.1682751894654346	0.2767605244799684	0.1536690984964442	0.5071058859131102	0.2733303317426252	0.4891893432280744	-2.340870168287938	-0.001573999713162073	-0.5864872185143885	0.6180226840106863	-2.224852428486796	-2.224852428486815	-0.320944793344922	0.05743107623781933	-0.5658059956385378	-0.2245143864247307	-0.1333732335929143	0.08215849563118277	0.002299211098465866	-0.115710683497445	-0.04405848553990293	-0.01947761664522632	0.1252317603243533	-39.90362892691508	15.96155228539915	-3.414645706688463	1.226301712219063	-425.3757536215189	-19.9672683127086	-10.94361456031426	0.6126701092899399	0.475574441547612	-0.8469133251084593	-1.076753974347947	0.2196466698078149	-0.3111838911072632	1.485174056591757	-0.9838140917238505	-0.9838140917304663	-0.3264175164363314	0.3533734887465357	-0.5946618678524638	0.2926882367221653	5.273629291545717e-07	4.758062723106637e-07	-7.018847400989662e-06	-2.593091386859789e-07	1.540373895024131e-06	2.477222762604728e-06	8.309916012010117e-07
1.52	-0.343220029580345	0.06310930141574357	0.8000703081536913	0.9640914982647332	-0.359736266232188	-0.05731164312581889	-0.3142633886916886	0.776718357360654	0.7767183573607213	-0.04665068749300176	-0.1676824588388217	0.2710740741191323	0.1514406671649651	0.5128695005529916	0.2779324140507183	0.4803952242226229	-2.350486924534031	0.0008474017717693151	-0.5894700108809128	0.63267594432209	-2.23368938337978	-2.233689383379842	-0.3236866193847245	0.06122271850188839	-0.5714056596856876	-0.2211819208606584	-0.1290069793701717	0.0806050240243142	0.003473264258957051	-0.112606497148548	-0.04425536593942134	-0.02055077358311104	0.1215821087195226	-39.83874047711747	16.19273681045929	-3.196179323738411	1.526510169386475	-422.1080630247716	-20.03121475285334	-11.85075466457479	0.5311602130561501	0.4438485016806353	-0.9129259959814844	-0.8278309650494676	0.2926375398291045	-0.340873291624052	1.454969663727852	-0.7717489472407819	-0.7717489472407312	-0.1290942188161139	0.4009563730232657	-0.5141598608244353	0.4159771803368189	3.563843187774413e-07	2.417468783178825e-06	-4.64653090270902e-06	1.030084848412875e-07	1.108352238019631e-06	2.648571978563975e-06	7.273069486103948e-07
1.53	-0.3380651517366466	0.06591037873292796	0.8048277207659407	0.9405474740292824	-0.3597140199756645	-0.06322982838997429	-0.3078655776847471	0.7543455212920844	0.7543455212920569	-0.0498914384791288	-0.1670569723277575	0.2653349317537499	0.1492487619418917	0.5180119854376747	0.2822307961051827	0.4709908500970477	-2.357987245088397	0.003584693078885697	-0.5939044096210874	0.6467784398585307	-2.240563853455741	-2.240563853455693	-0.3246225025126309	0.0639946447599002	-0.5763319974120836	-0.2172006057647221	-0.1246095715656283	0.07883680479418796	0.00459160956100833	-0.1098028148175297	-0.0442472334046114	-0.02168767840971649	0.1179121813139938	-39.72978577660724	16.45743949945279	-2.998535206347214	1.804252412260017	-419.109929492891	-20.08758566850637	-12.75364214992373	0.4916936795764825	0.4152148001993253	-0.96871103219764	-0.661533498863605	0.2605376592901923	-0.4550569094753016	1.371716917574186	-0.5982736976796176	-0.5982736976630892	-0.09841470692348646	0.2338955745046828	-0.4679521113061568	0.3874922853938163	1.527728100474153e-08	5.799440852038859e-06	-4.404796391160179e-09	7.515034679684069e-07	2.213831628177693e-07	2.613954020439403e-06	4.952084770343492e-07
1.54	-0.3328616688334088	0.06875291621923106	0.8094881860546655	0.9169383664086469	-0.3596651482594257	-0.069184424390396	-0.301329976238647	0.7319133449908385	0.7319133449905765	-0.05314606416631897	-0.1664000495894792	0.259549309734551	0.147096326592014	0.522590512458409	0.2862244478744608	0.4610057595176157	-2.363503601572115	0.00617249371148332	-0.5967521581317056	0.6602340321538492	-2.245557429927935	-2.245557429927776	-0.3264615595263436	0.06750996391047259	-0.5807015904488406	-0.2132879462219127	-0.1202121637611231	0.07706858556405152	0.005709954861745486	-0.1069991324864848	-0.04423910086978643	-0.02282458323631454	0.1142422539084216	-39.61931082779778	16.72130439714015	-2.800104019910376	2.082417451569231	-416.0775477386936	-20.13657950973667	-13.65205001311796	0.4183686402667727	0.3829024446431883	-1.029069286752867	-0.4310381509199559	0.2627394049254882	-0.02354324571273906	1.325589015503634	-0.3955702264872233	-0.3955702264872246	-0.3097289959773732	0.5496349515353715	-0.4028109228968698	0.4022460697114017	-1.080339056221964e-07	7.155106934887676e-06	1.658354136474885e-06	1.000904775418611e-06	-7.394181311355432e-08	2.711181453695974e-06	4.203303955715124e-07
1.55	-0.3276151321320662	0.07163382738084967	0.8140460493224538	0.8932836091226903	-0.3595917088199384	-0.07515735060412471	-0.2946634361293618	0.709440237625052	0.709440237624913	-0.05642601343154043	-0.165702952938122	0.2537225039895676	0.1449818206158233	0.5266066438970707	0.2898994702107875	0.4504814620954938	-2.367093671829353	0.008529212885689811	-0.5978434442262648	0.6729522880597065	-2.248741143696166	-2.248741143696154	-0.3294343934739369	0.07187375709824104	-0.584555938365219	-0.2095657869697875	-0.1157174306392424	0.07517162377127805	0.006688276174817154	-0.1046019776382382	-0.04393648703845297	-0.02402697267510604	0.1105019060099313	-39.44115495199436	17.0180131053042	-2.625475593272781	2.323078199785506	-413.4035543106204	-20.21178129499511	-14.54638390935585	0.3767301251621333	0.3511897074778113	-1.076819351651452	-0.2698389404841611	0.2237961798514003	-0.15293564261439	1.226688631732082	-0.2314541481670057	-0.2314541481892284	-0.276167415148389	0.3742894218801374	-0.3609924511719445	0.3635636897550886	1.959360581009919e-08	6.176116120810656e-06	-1.116360652881434e-07	7.904807608932631e-07	3.124101079407049e-07	2.9603177074569e-06	5.265975461956237e-07
1.56	-0.322331735170422	0.07454976628170186	0.8184961277396807	0.8696035816386936	-0.3594943705874519	-0.0811413925490955	-0.2878733645102964	0.6869449566822952	0.6869449566823959	-0.05973271240020196	-0.1649633107711034	0.2478603056203981	0.1429058087995141	0.5299625645155689	0.2932299957211806	0.4394487894052468	-2.368557641180919	0.01095225230725184	-0.5989753043723229	0.6849403341097713	-2.249992145311435	-2.249992145311571	-0.3318115002614616	0.07601906706530222	-0.5877801152881451	-0.2055891142459854	-0.111222697517483	0.0732746619783106	0.007666597488648968	-0.1022048227900362	-0.04363387320717113	-0.02522936211417438	0.1067615581113646	-39.25987578945772	17.31275063389124	-2.448906070120281	2.544724929249396	-410.6770943574333	-20.32728713235261	-15.43647469982854	0.2863264762345372	0.3140030794562688	-1.130744340377873	-0.005817969785245376	0.2760034543965935	-0.03165805601244127	1.179547044345378	-0.009027795894929202	-0.009027795894929202	-0.1905835639636095	0.5059383073939292	-0.276776724206725	0.4531487640467066	6.27305770773074e-08	5.726927022387975e-06	-8.182609877191401e-07	6.98810988786317e-07	4.48895658381256e-07	2.989703914817482e-06	5.651126016515137e-07
1.57	-0.317018255469985	0.07749721230206134	0.8228333980345336	0.8459201263646524	-0.3593718161811061	-0.08713855649089616	-0.2809669284432243	0.664447446676144	0.6644474466760799	-0.06305813804807744	-0.1641841000238518	0.2419693990855107	0.1408718296999503	0.5326209691610865	0.2961936673086251	0.4279311709354244	-2.367755420087233	0.01358876796118053	-0.6004666423573267	0.6962172328445443	-2.249157876588024	-2.249157876588039	-0.3331484553953595	0.07978056695265509	-0.5902832429659784	-0.2011382078136651	-0.1068366790987503	0.07132225932903712	0.008548439578706364	-0.09984804241214233	-0.04345855405827333	-0.02648931420619895	0.1030976093859493	-39.14417058251544	17.64562862251714	-2.280312427750087	2.827917341400941	-408.2799441214438	-20.41472856334938	-16.31223163889982	0.2387507291184274	0.2778756957396167	-1.173351034249435	0.1799501428503462	0.2613053903626358	-0.2088482750083455	1.082314319149111	0.1823526357914743	0.1823526358096027	-0.08552911817523429	0.3049734385165897	-0.2191666360036919	0.4503629553991326	2.54373138157347e-10	5.939990068533212e-06	-1.956793109851099e-07	7.555840197023713e-07	2.730482455546747e-07	2.744402564177641e-06	5.189375381471279e-07
